<?xml version="1.0" encoding="UTF-8"?>
<svg id="Layer_2" data-name="Layer 2" xmlns="http://www.w3.org/2000/svg" xmlns:xlink="http://www.w3.org/1999/xlink" viewBox="0 0 879.86 319.17">
  <defs>
    <style>
      .cls-1 {
        fill: url(#radial-gradient-7);
      }

      .cls-2 {
        fill: url(#radial-gradient-6);
      }

      .cls-3 {
        fill: url(#radial-gradient-5);
      }

      .cls-4 {
        fill: url(#radial-gradient-4);
      }

      .cls-5 {
        fill: url(#radial-gradient-8);
      }

      .cls-6 {
        fill: url(#radial-gradient-3);
      }

      .cls-7 {
        fill: url(#radial-gradient-2);
      }

      .cls-8 {
        fill: url(#radial-gradient);
      }

      .cls-9 {
        fill: #150439;
      }
    </style>
    <radialGradient id="radial-gradient" cx="217.94" cy="319.08" fx="217.94" fy="319.08" r=".09" gradientUnits="userSpaceOnUse">
      <stop offset=".24" stop-color="#f5af47"/>
      <stop offset=".88" stop-color="#399"/>
    </radialGradient>
    <radialGradient id="radial-gradient-2" cx="189.32" cy="-31.78" fx="189.32" fy="-31.78" r="339.96" xlink:href="#radial-gradient"/>
    <radialGradient id="radial-gradient-3" cx="189.32" cy="-31.78" fx="189.32" fy="-31.78" r="339.96" xlink:href="#radial-gradient"/>
    <radialGradient id="radial-gradient-4" cx="189.32" cy="-31.78" fx="189.32" fy="-31.78" r="339.96" xlink:href="#radial-gradient"/>
    <radialGradient id="radial-gradient-5" cx="189.32" cy="-31.78" fx="189.32" fy="-31.78" r="339.96" xlink:href="#radial-gradient"/>
    <radialGradient id="radial-gradient-6" cx="105" cy="208.06" fx="105" fy="208.06" r="219.92" xlink:href="#radial-gradient"/>
    <radialGradient id="radial-gradient-7" cx="105" cy="208.06" fx="105" fy="208.06" r="219.92" gradientUnits="userSpaceOnUse">
      <stop offset=".24" stop-color="#ffcf89"/>
      <stop offset=".88" stop-color="#87e7e7"/>
    </radialGradient>
    <radialGradient id="radial-gradient-8" cx="105" cy="208.06" fx="105" fy="208.06" r="219.92" xlink:href="#radial-gradient-7"/>
  </defs>
  <g id="Layer_1-2" data-name="Layer 1">
    <g>
      <g>
        <g>
          <polygon class="cls-8" points="217.91 319.09 217.95 319.11 217.91 319.17 217.91 319.09"/>
          <path class="cls-7" d="M217.96,290.77v.02l-.05,28.31c-37.73-28.5-63.19-68.87-73.73-113.06,14.86-1.17,28.1,1.38,38.5,7.52,25.49,15.05,33.17,51.22,35.28,77.21Z"/>
          <path class="cls-6" d="M218.45.02s-.02.03-.02.05l-.15,90.44v.03c-18.66,44.85-47.7,76.22-77.96,94.39-4.88-38.07,1.15-77.93,19.66-114.81,13.92-27.73,33.42-50.81,56.42-68.56l.06-.03,1.95-1.48.02-.02v-.03l.02.02Z"/>
          <path class="cls-4" d="M57.59,201.07c-3.98-1.12-7.75-2.62-11.29-4.43C.97,173.25,0,95.35,0,90.27v-.15c8.69,6.45,16.72,13.94,23.86,22.4,7.15,8.46,13.43,17.91,18.6,28.25,9.72,19.4,14.62,39.96,15.12,60.3Z"/>
          <path class="cls-3" d="M48.13,255.81c-9.43,24.65-25.68,46.74-47.73,63.21-.08.06-.12.11-.2.15v-.06c14.23-25.5,30.66-46.54,47.93-63.3Z"/>
        </g>
        <path class="cls-2" d="M144.18,206.04c-28.88,2.25-63.9,18.54-96.06,49.77.78-2.02,1.51-4.03,2.18-6.08,5.19-15.59,7.69-32.05,7.28-48.67,23.33,6.65,53.61,1.35,82.73-16.14.91,7.12,2.2,14.16,3.86,21.11Z"/>
        <path class="cls-1" d="M50.31,249.73c-.68,2.05-1.4,4.06-2.18,6.08-17.26,16.76-33.7,37.8-47.93,63.3-.06-76.28-.14-152.55-.2-228.84,0,5.08.97,82.98,46.3,106.36,3.54,1.82,7.31,3.31,11.29,4.43.42,16.62-2.09,33.08-7.28,48.67Z"/>
        <path class="cls-5" d="M218.28,90.53l-.32,200.24c-2.11-25.99-9.79-62.16-35.28-77.21-10.4-6.14-23.63-8.69-38.5-7.52-1.66-6.95-2.95-13.99-3.86-21.11,30.26-18.17,59.3-49.54,77.96-94.39Z"/>
      </g>
      <g>
        <path class="cls-9" d="M280.89,245.3V89.06h25.75v64.7h77.24v-64.7h25.75v156.24h-25.75v-67.12h-77.24v67.12h-25.75Z"/>
        <path class="cls-9" d="M484.45,247.5c-16.43,0-29.93-5.39-40.49-16.17-10.56-10.78-15.84-24.46-15.84-41.04s5.21-30.26,15.62-41.04c10.42-10.78,24.06-16.17,40.93-16.17s30.73,5.91,41.15,17.72c10.42,11.81,15.04,26.96,13.86,45.44h-87.58c.29,8.51,3.52,15.62,9.68,21.35,6.16,5.72,14.01,8.58,23.55,8.58,13.5,0,22.74-5.13,27.73-15.4h25.31c-3.38,10.71-9.83,19.51-19.37,26.41-9.54,6.9-21.05,10.34-34.55,10.34ZM484.01,153.32c-7.92,0-14.71,2.24-20.36,6.71-5.65,4.48-9.28,10.82-10.89,19.03h60.96c-1.76-8.51-5.36-14.93-10.78-19.25-5.43-4.33-11.74-6.49-18.93-6.49Z"/>
        <path class="cls-9" d="M855.65,142.37c-9.32-6.6-20.71-10.47-33-10.47-31.61,0-57.22,25.62-57.22,57.22s25.62,57.21,57.22,57.21c12.29,0,23.68-3.88,33-10.47v9.44h24.21v-56.17c0-19.32-9.57-36.38-24.21-46.75ZM822.65,224.33c-19.45,0-35.22-15.77-35.22-35.2s15.77-35.22,35.22-35.22c15.13,0,28.03,9.55,33,22.95,1.43,3.82,2.2,7.94,2.2,12.26s-.77,8.43-2.2,12.25c-4.97,13.4-17.87,22.96-33,22.96Z"/>
        <path class="cls-9" d="M642.65,142.37c-9.32-6.6-20.71-10.47-33-10.47-31.61,0-57.22,25.62-57.22,57.22s25.62,57.21,57.22,57.21c12.29,0,23.68-3.88,33-10.47v4.6c0,10.26-2.82,18.22-8.47,23.87-5.65,5.65-12.79,8.47-21.45,8.47-16,0-26.12-6.32-30.38-18.93h-23.75c1.46,11.74,7,21.28,16.61,28.62,9.6,7.32,21.89,10.99,36.86,10.99,15.84,0,28.93-4.61,39.28-13.86,10.34-9.24,15.52-22.96,15.52-41.15v-49.36c0-19.32-9.57-36.38-24.21-46.75ZM609.65,224.33c-19.45,0-35.22-15.77-35.22-35.2s15.77-35.22,35.22-35.22c15.13,0,28.03,9.55,33,22.95,1.43,3.82,2.2,7.94,2.2,12.26s-.77,8.43-2.2,12.25c-4.97,13.4-17.87,22.96-33,22.96Z"/>
        <path class="cls-9" d="M760.21,168.94h-25.99c-6.45-7.16-15.78-11.66-26.16-11.66v88.02h-24.21v-110.03h24.21c23.21,0,43.17,13.81,52.15,33.66Z"/>
      </g>
    </g>
  </g>
</svg>